<svg xmlns="http://www.w3.org/2000/svg" data-name="Layer 1" viewBox="0 0 24 30" x="0px" y="0px"><title>outlined</title><path d="M18.772,3.264h-1.15V2.5a.6.6,0,1,0-1.2,0v.764H7.578V2.5a.6.6,0,0,0-1.2,0v.764H5.227A2.815,2.815,0,0,0,2.416,6.076V19.289A2.815,2.815,0,0,0,5.227,22.1H18.772a2.814,2.814,0,0,0,2.812-2.812V6.076A2.814,2.814,0,0,0,18.772,3.264Zm1.612,16.024A1.614,1.614,0,0,1,18.772,20.9H5.227a1.613,1.613,0,0,1-1.611-1.611V9.068H20.385Zm0-11.42H3.616V6.076A1.613,1.613,0,0,1,5.227,4.464H6.378v.69a.6.6,0,0,0,1.2,0v-.69h8.845v.69a.6.6,0,1,0,1.2,0v-.69h1.15a1.614,1.614,0,0,1,1.612,1.611ZM5.815,12.721a1.25,1.25,0,1,1,1.25,1.25A1.25,1.25,0,0,1,5.815,12.721Zm4.935,0A1.25,1.25,0,1,1,12,13.971,1.25,1.25,0,0,1,10.75,12.721Zm4.935,0a1.25,1.25,0,1,1,1.25,1.25A1.25,1.25,0,0,1,15.685,12.721ZM5.815,16.8a1.25,1.25,0,1,1,1.25,1.25A1.25,1.25,0,0,1,5.815,16.8Zm4.935,0A1.25,1.25,0,1,1,12,18.048,1.25,1.25,0,0,1,10.75,16.8Zm4.935,0a1.25,1.25,0,1,1,1.25,1.25A1.25,1.25,0,0,1,15.685,16.8Z"/><text x="0" y="39" fill="#000000" font-size="5px" font-weight="bold" font-family="'Helvetica Neue', Helvetica, Arial-Unicode, Arial, Sans-serif">Created by Hare Krishna</text><text x="0" y="44" fill="#000000" font-size="5px" font-weight="bold" font-family="'Helvetica Neue', Helvetica, Arial-Unicode, Arial, Sans-serif">from the Noun Project</text></svg>