<svg xmlns="http://www.w3.org/2000/svg" data-name="Layer 1" viewBox="0 0 24 30" x="0px" y="0px"><title>outlined</title><path d="M18,1.4H6A4.6,4.6,0,0,0,1.4,6V18A4.6,4.6,0,0,0,6,22.6H18A4.6,4.6,0,0,0,22.6,18V6A4.6,4.6,0,0,0,18,1.4ZM21.4,18A3.4,3.4,0,0,1,18,21.4H6A3.4,3.4,0,0,1,2.6,18V6A3.4,3.4,0,0,1,6,2.6H18A3.4,3.4,0,0,1,21.4,6ZM7.1,13.675V16a.6.6,0,1,1-1.2,0V13.675a.6.6,0,1,1,1.2,0Zm3.667-1.892V16a.6.6,0,1,1-1.2,0V11.783a.6.6,0,0,1,1.2,0Zm3.666-1.892V16a.6.6,0,1,1-1.2,0V9.892a.6.6,0,0,1,1.2,0ZM18.1,8v8a.6.6,0,0,1-1.2,0V8a.6.6,0,0,1,1.2,0Z"/><text x="0" y="39" fill="#000000" font-size="5px" font-weight="bold" font-family="'Helvetica Neue', Helvetica, Arial-Unicode, Arial, Sans-serif">Created by Hare Krishna</text><text x="0" y="44" fill="#000000" font-size="5px" font-weight="bold" font-family="'Helvetica Neue', Helvetica, Arial-Unicode, Arial, Sans-serif">from the Noun Project</text></svg>