<svg xmlns="http://www.w3.org/2000/svg" data-name="Layer 1" viewBox="0 0 24 30" x="0px" y="0px"><title>outlined</title><path d="M22.424,11.681,13.967,3.232a2.788,2.788,0,0,0-3.934,0L1.576,11.681a.6.6,0,0,0,.849.849L3.456,11.5,4.1,19.036a2.767,2.767,0,0,0,2.773,2.545H17.125A2.767,2.767,0,0,0,19.9,19.036l.646-7.536,1.032,1.031a.6.6,0,0,0,.849-.849ZM18.7,18.933a1.575,1.575,0,0,1-1.578,1.448H6.875A1.575,1.575,0,0,1,5.3,18.933l-.732-8.542,6.316-6.309a1.587,1.587,0,0,1,2.238,0l6.316,6.31ZM8.432,12.964A3.568,3.568,0,1,0,12,9.4,3.572,3.572,0,0,0,8.432,12.964Zm5.937,0A2.368,2.368,0,1,1,12,10.6,2.371,2.371,0,0,1,14.368,12.964Z"/><text x="0" y="39" fill="#000000" font-size="5px" font-weight="bold" font-family="'Helvetica Neue', Helvetica, Arial-Unicode, Arial, Sans-serif">Created by Hare Krishna</text><text x="0" y="44" fill="#000000" font-size="5px" font-weight="bold" font-family="'Helvetica Neue', Helvetica, Arial-Unicode, Arial, Sans-serif">from the Noun Project</text></svg>